:SAMPLES-PER-SECOND 30
:FULLY-SPECIFIED
:DEGREES
247
root  -5.03702 47.7579 -6.50456 -123.95 82.5359 -127.885
RightUpLeg  -38.6764 -10.4097 11.8926
RightLeg  45.8697 -4.11838 -4.88418
RightFoot  -10.5905 -0.0310915 -6.166
RightToes  0.00048216 0.542163 -0.142577
Spine  31.4139 -2.61699 16.4199
Spine1  -0.640985 -0.11062 6.84005
HEad  -13.3884 -6.96626 -2.0858
LeftShoulder1  9.27351 -14.9174 -43.8149
LeftArm  -0.665939 1.8589 -32.5123
LeftForeArm  47.3355 -41.612 -6.91355
LeftHand  -0.25398 0.0180481 5.50724
RightShoulder  4.96908 9.65675 31.8139
RightArm  -9.75161 8.08825 33.2256
RightForeArm  3.41646 34.9173 7.64914
RightHand  -1.20797 2.46881 -17.9684
LeftUpLeg  -35.9038 7.25137 6.23866
LeftLeg  89.9628 -0.410672 4.3843
LeftFoot  6.78307 0.426024 -2.95967
LeftToes  1.06247e-005 4.65855e-005 -8.185e-006
248
root  -3.7865 48.4633 -6.45054 -124.643 83.6929 -128.491
RightUpLeg  -34.5196 -10.8634 10.6858
RightLeg  42.8784 -3.63152 -3.92973
RightFoot  -11.5549 -0.0892393 -6.00164
RightToes  0.00048216 0.542163 -0.142577
Spine  30.6755 -1.94405 15.6742
Spine1  -0.526173 0.451426 5.83097
HEad  -12.7096 -7.22178 -2.16551
LeftShoulder1  9.41112 -14.854 -44.6597
LeftArm  -0.0613327 3.38515 -31.5842
LeftForeArm  44.6975 -36.7135 -5.71075
LeftHand  -0.25398 0.0180481 5.50724
RightShoulder  5.01373 9.58604 32.3605
RightArm  -9.96542 9.75648 33.2714
RightForeArm  2.94693 37.2656 8.35763
RightHand  -1.37438 3.13211 -18.8688
LeftUpLeg  -42.0397 6.80438 5.02296
LeftLeg  94.3936 -0.667813 3.55415
LeftFoot  3.13653 0.399358 -3.29662
LeftToes  1.06247e-005 4.65855e-005 -8.185e-006
249
root  -2.49729 49.1026 -6.40143 -126.841 84.813 -130.493
RightUpLeg  -30.2229 -11.2366 9.33514
RightLeg  39.8115 -3.22991 -3.18691
RightFoot  -12.5174 -0.143298 -5.7477
RightToes  0.00048216 0.542163 -0.142577
Spine  29.7962 -1.34646 14.693
Spine1  -0.442219 0.828227 4.92398
HEad  -11.825 -7.27136 -2.16268
LeftShoulder1  9.47603 -14.7288 -45.3032
LeftArm  0.911304 4.5838 -30.6087
LeftForeArm  40.7638 -30.8486 -4.4757
LeftHand  -0.25398 0.0180481 5.50724
RightShoulder  5.10318 9.60628 32.9834
RightArm  -9.31707 11.1482 33.3784
RightForeArm  2.89332 38.8831 8.86029
RightHand  -1.40784 3.25072 -19.0555
LeftUpLeg  -46.8634 6.28207 3.93968
LeftLeg  95.1817 -0.673719 3.22578
LeftFoot  1.17105 0.370271 -3.43136
LeftToes  1.06247e-005 4.65855e-005 -8.185e-006
250
root  -1.17794 49.6817 -6.34694 -129.878 86.0838 -133.159
RightUpLeg  -25.7258 -11.0843 7.76778
RightLeg  36.7287 -2.98603 -2.6733
RightFoot  -13.5497 -0.194283 -5.32643
RightToes  0.00048216 0.542163 -0.142577
Spine  28.9087 -0.746363 13.4578
Spine1  -0.385686 1.23787 3.78636
HEad  -10.4813 -7.3194 -2.24065
LeftShoulder1  9.48967 -14.6074 -45.6865
LeftArm  1.88053 5.77632 -29.6351
LeftForeArm  36.3785 -24.81 -3.5391
LeftHand  -0.25398 0.0180481 5.50724
RightShoulder  5.1966 9.69157 33.4382
RightArm  -7.9756 11.8716 33.763
RightForeArm  2.99758 40.1051 9.24857
RightHand  -1.34924 2.91009 -18.9987
LeftUpLeg  -49.8862 6.02577 2.82083
LeftLeg  92.6246 -0.539211 3.45087
LeftFoot  -0.52169 0.287705 -3.00844
LeftToes  1.06247e-005 4.65855e-005 -8.185e-006
251
root  0.151187 50.1365 -6.28278 -132.747 87.5038 -135.552
RightUpLeg  -21.4144 -10.1165 6.17075
RightLeg  34.1442 -3.15133 -2.56436
RightFoot  -14.5684 -0.241997 -5.07868
RightToes  0.00048216 0.542163 -0.142577
Spine  28.0169 -0.0898002 12.0076
Spine1  -0.242615 1.72037 2.56328
HEad  -9.00744 -7.16301 -2.31393
LeftShoulder1  9.44068 -14.4653 -45.8144
LeftArm  0.625801 7.41632 -28.5132
LeftForeArm  34.9629 -19.8094 -3.70258
LeftHand  -0.25398 0.0180481 5.50724
RightShoulder  5.28324 9.80028 33.7651
RightArm  -6.06796 11.9415 34.348
RightForeArm  3.47083 41.1349 9.56286
RightHand  -1.24768 2.3828 -18.7401
LeftUpLeg  -51.1853 6.13611 1.76061
LeftLeg  87.2528 -0.214095 3.66915
LeftFoot  -1.78399 0.270577 -3.10936
LeftToes  1.06247e-005 4.65855e-005 -8.185e-006
